<svg xmlns="http://www.w3.org/2000/svg" width="1400" height="710" viewBox="0 0 1400 710"><defs><marker id="arrow" markerWidth="10" markerHeight="10" refX="8" refY="3" orient="auto" markerUnits="strokeWidth"><path d="M0,0 L0,6 L9,3 z" fill="#35556f"/></marker><style>.title{font:700 26px Microsoft YaHei,PingFang SC,sans-serif;fill:#fff}.step{font:700 18px Microsoft YaHei,PingFang SC,sans-serif;fill:#17324d}.meta{font:15px Microsoft YaHei,PingFang SC,sans-serif;fill:#3f5567}.edge{fill:none;stroke:#35556f;stroke-width:3;marker-end:url(#arrow)}</style></defs><rect width="1400" height="710" fill="#ffffff"/><rect x="40" y="30" width="1320" height="70" rx="16" fill="#17324d"/><text x="700" y="74" text-anchor="middle" class="title">L03 实践路线：按顺序操作，每一步都留下实际结果</text><rect x="170" y="140" width="410" height="120" rx="14" fill="#dae8fc" stroke="#6c8ebf" stroke-width="2"/><text x="375" y="174" text-anchor="middle" class="step">1 建立本讲目录</text><text x="375" y="208" text-anchor="middle" class="meta">位置：PowerShell</text><text x="375" y="236" text-anchor="middle" class="meta">产出：5 个练习文件</text><rect x="820" y="140" width="410" height="120" rx="14" fill="#dae8fc" stroke="#6c8ebf" stroke-width="2"/><text x="1025" y="174" text-anchor="middle" class="step">2 回答需求问题</text><text x="1025" y="208" text-anchor="middle" class="meta">位置：Codex + 你</text><text x="1025" y="236" text-anchor="middle" class="meta">产出：decisions.md</text><rect x="170" y="320" width="410" height="120" rx="14" fill="#dae8fc" stroke="#6c8ebf" stroke-width="2"/><text x="375" y="354" text-anchor="middle" class="step">3 写合同并消除歧义</text><text x="375" y="388" text-anchor="middle" class="meta">位置：Codex + 你</text><text x="375" y="416" text-anchor="middle" class="meta">产出：v1 与确认版 Spec</text><rect x="820" y="320" width="410" height="120" rx="14" fill="#dae8fc" stroke="#6c8ebf" stroke-width="2"/><text x="1025" y="354" text-anchor="middle" class="step">4 抽取通用模板</text><text x="1025" y="388" text-anchor="middle" class="meta">位置：练习仓库</text><text x="1025" y="416" text-anchor="middle" class="meta">产出：模板与采购迁移稿</text><rect x="170" y="500" width="410" height="120" rx="14" fill="#dae8fc" stroke="#6c8ebf" stroke-width="2"/><text x="375" y="534" text-anchor="middle" class="step">5 建设结构解析器</text><text x="375" y="568" text-anchor="middle" class="meta">位置：练习仓库</text><text x="375" y="596" text-anchor="middle" class="meta">产出：解析器与测试</text><rect x="820" y="500" width="410" height="120" rx="14" fill="#d5e8d4" stroke="#82b366" stroke-width="2"/><text x="1025" y="534" text-anchor="middle" class="step">6 用三份合同复验</text><text x="1025" y="568" text-anchor="middle" class="meta">位置：PowerShell + 你</text><text x="1025" y="596" text-anchor="middle" class="meta">产出：evidence.md</text><path class="edge" d="M580 200 H810"/><path class="edge" d="M1025 260 V290 H375 V310"/><path class="edge" d="M580 380 H810"/><path class="edge" d="M1025 440 V470 H375 V490"/><path class="edge" d="M580 560 H810"/></svg>
